<?xml version="1.0" encoding="UTF-8"?>
<!DOCTYPE svg PUBLIC "-//W3C//DTD SVG 1.1//EN" "http://www.w3.org/Graphics/SVG/1.1/DTD/svg11.dtd">
<svg xmlns="http://www.w3.org/2000/svg" version="1.1" width="225px" height="225px" style="shape-rendering:geometricPrecision; text-rendering:geometricPrecision; image-rendering:optimizeQuality; fill-rule:evenodd; clip-rule:evenodd" xmlns:xlink="http://www.w3.org/1999/xlink">
<g><path style="opacity:1" fill="#050505" d="M 109.5,-0.5 C 111.167,-0.5 112.833,-0.5 114.5,-0.5C 118.499,8.17282 123.499,16.1728 129.5,23.5C 129.427,25.0269 130.094,26.0269 131.5,26.5C 145.245,40.4139 160.578,52.2473 177.5,62C 183.61,66.3773 189.277,71.2106 194.5,76.5C 194.427,78.0269 195.094,79.0269 196.5,79.5C 206.569,90.0173 211.569,102.684 211.5,117.5C 211.831,138.724 203.831,155.89 187.5,169C 168.42,179.155 150.087,177.989 132.5,165.5C 132.027,164.094 131.027,163.427 129.5,163.5C 125.236,159.592 124.403,160.592 127,166.5C 130.005,173.182 133.505,179.516 137.5,185.5C 137.427,187.027 138.094,188.027 139.5,188.5C 141.833,190.167 143.833,192.167 145.5,194.5C 145.5,196.5 146.5,197.5 148.5,197.5C 158.376,206.611 169.709,213.444 182.5,218C 184.931,220.106 184.931,222.273 182.5,224.5C 135.5,224.5 88.5,224.5 41.5,224.5C 41.5,224.167 41.5,223.833 41.5,223.5C 41.5,221.833 41.5,220.167 41.5,218.5C 71.8716,210.463 91.8716,191.463 101.5,161.5C 102.598,160.399 102.765,159.066 102,157.5C 101.283,158.044 100.783,158.711 100.5,159.5C 82.7003,178.426 62.0337,182.259 38.5,171C 36.0038,169.669 34.0038,167.836 32.5,165.5C 31.7377,163.738 30.4044,162.738 28.5,162.5C 14.7158,145.194 9.8825,125.528 14,103.5C 15.4608,97.2511 17.9608,91.5845 21.5,86.5C 22.9063,86.0269 23.573,85.0269 23.5,83.5C 27.4608,77.8714 32.1275,72.8714 37.5,68.5C 39.0269,68.573 40.0269,67.9063 40.5,66.5C 42.7703,64.0252 45.437,62.0252 48.5,60.5C 50.0269,60.573 51.0269,59.9063 51.5,58.5C 52.2905,57.5987 53.2905,56.9321 54.5,56.5C 56.0269,56.573 57.0269,55.9063 57.5,54.5C 66.4835,48.6675 75.1502,42.3342 83.5,35.5C 85.5,35.5 86.5,34.5 86.5,32.5C 88.8333,32.1667 90.1667,30.8333 90.5,28.5C 91.8333,26.5 93.5,24.8333 95.5,23.5C 96.9063,23.0269 97.573,22.0269 97.5,20.5C 97.5,19.8333 97.8333,19.5 98.5,19.5C 99.9063,19.0269 100.573,18.0269 100.5,16.5C 104.279,11.2769 107.279,5.61018 109.5,-0.5 Z"/></g>
<g><path style="opacity:0.431" fill="#949494" d="M 100.5,16.5 C 100.573,18.0269 99.9063,19.0269 98.5,19.5C 98.427,17.9731 99.0937,16.9731 100.5,16.5 Z"/></g>
<g><path style="opacity:0.741" fill="#808080" d="M 97.5,20.5 C 97.573,22.0269 96.9063,23.0269 95.5,23.5C 95.427,21.9731 96.0937,20.9731 97.5,20.5 Z"/></g>
<g><path style="opacity:0.824" fill="#777777" d="M 129.5,23.5 C 130.906,23.9731 131.573,24.9731 131.5,26.5C 130.094,26.0269 129.427,25.0269 129.5,23.5 Z"/></g>
<g><path style="opacity:0.698" fill="#787878" d="M 90.5,28.5 C 90.1667,30.8333 88.8333,32.1667 86.5,32.5C 87.5,30.8333 88.8333,29.5 90.5,28.5 Z"/></g>
<g><path style="opacity:0.725" fill="#7c7c7c" d="M 86.5,32.5 C 86.5,34.5 85.5,35.5 83.5,35.5C 84.1667,34.1667 85.1667,33.1667 86.5,32.5 Z"/></g>
<g><path style="opacity:0.702" fill="#7e7e7e" d="M 57.5,54.5 C 57.0269,55.9063 56.0269,56.573 54.5,56.5C 54.9731,55.0937 55.9731,54.427 57.5,54.5 Z"/></g>
<g><path style="opacity:0.729" fill="#767676" d="M 51.5,58.5 C 51.0269,59.9063 50.0269,60.573 48.5,60.5C 48.9731,59.0937 49.9731,58.427 51.5,58.5 Z"/></g>
<g><path style="opacity:0.71" fill="#797979" d="M 40.5,66.5 C 40.0269,67.9063 39.0269,68.573 37.5,68.5C 37.9731,67.0937 38.9731,66.427 40.5,66.5 Z"/></g>
<g><path style="opacity:0.714" fill="#848484" d="M 194.5,76.5 C 195.906,76.9731 196.573,77.9731 196.5,79.5C 195.094,79.0269 194.427,78.0269 194.5,76.5 Z"/></g>
<g><path style="opacity:0.439" fill="#898989" d="M 23.5,83.5 C 23.573,85.0269 22.9063,86.0269 21.5,86.5C 21.427,84.9731 22.0937,83.9731 23.5,83.5 Z"/></g>
<g><path style="opacity:0.043" fill="#d2d2d2" d="M 101.5,161.5 C 101.672,160.508 101.338,159.842 100.5,159.5C 100.783,158.711 101.283,158.044 102,157.5C 102.765,159.066 102.598,160.399 101.5,161.5 Z"/></g>
<g><path style="opacity:0.216" fill="#909090" d="M 125.5,159.5 C 124.833,159.5 124.5,159.833 124.5,160.5C 123.427,159.749 123.26,158.749 124,157.5C 124.717,158.044 125.217,158.711 125.5,159.5 Z"/></g>
<g><path style="opacity:0.725" fill="#8b8b8b" d="M 28.5,162.5 C 30.4044,162.738 31.7377,163.738 32.5,165.5C 30.5956,165.262 29.2623,164.262 28.5,162.5 Z"/></g>
<g><path style="opacity:0.518" fill="#8b8b8b" d="M 129.5,163.5 C 131.027,163.427 132.027,164.094 132.5,165.5C 130.973,165.573 129.973,164.906 129.5,163.5 Z"/></g>
<g><path style="opacity:0.749" fill="#828282" d="M 137.5,185.5 C 138.906,185.973 139.573,186.973 139.5,188.5C 138.094,188.027 137.427,187.027 137.5,185.5 Z"/></g>
<g><path style="opacity:0.71" fill="#969696" d="M 145.5,194.5 C 146.833,195.167 147.833,196.167 148.5,197.5C 146.5,197.5 145.5,196.5 145.5,194.5 Z"/></g>
<g><path style="opacity:0.812" fill="#787878" d="M 41.5,218.5 C 41.5,220.167 41.5,221.833 41.5,223.5C 38.8333,221.833 38.8333,220.167 41.5,218.5 Z"/></g>
</svg>
