<?xml version="1.0" encoding="UTF-8"?>
<!DOCTYPE svg PUBLIC "-//W3C//DTD SVG 1.1//EN" "http://www.w3.org/Graphics/SVG/1.1/DTD/svg11.dtd">
<svg xmlns="http://www.w3.org/2000/svg" version="1.1" width="600px" height="600px" style="shape-rendering:geometricPrecision; text-rendering:geometricPrecision; image-rendering:optimizeQuality; fill-rule:evenodd; clip-rule:evenodd" xmlns:xlink="http://www.w3.org/1999/xlink">
<g><path style="opacity:0.993" fill="#000000" d="M 283.5,-0.5 C 294.167,-0.5 304.833,-0.5 315.5,-0.5C 378.006,12.5083 415.173,50.5083 427,113.5C 430.176,148.289 423.842,181.289 408,212.5C 400.502,226.838 392.002,240.505 382.5,253.5C 382.833,253.833 383.167,254.167 383.5,254.5C 405.361,239.49 429.361,229.656 455.5,225C 519.131,221.389 563.964,248.556 590,306.5C 594.449,318.302 597.615,330.302 599.5,342.5C 599.5,353.833 599.5,365.167 599.5,376.5C 591.242,429.849 562.242,467.015 512.5,488C 487.29,496.277 461.957,496.61 436.5,489C 405.672,479.452 377.672,464.785 352.5,445C 342.709,437.544 333.209,429.711 324,421.5C 324.521,456.147 330.521,489.814 342,522.5C 355.788,555.006 379.288,577.506 412.5,590C 422.525,593.498 432.525,596.665 442.5,599.5C 347.167,599.5 251.833,599.5 156.5,599.5C 176.224,594.864 194.891,587.364 212.5,577C 241.503,556.599 259.337,528.765 266,493.5C 271.343,469.768 274.343,445.768 275,421.5C 254.964,437.767 234.131,452.934 212.5,467C 191.084,480.917 167.751,489.917 142.5,494C 82.8259,497.253 39.3259,472.419 12,419.5C 5.86314,405.605 1.69647,391.272 -0.5,376.5C -0.5,365.167 -0.5,353.833 -0.5,342.5C 6.88559,293.559 32.5523,257.725 76.5,235C 127.115,215.964 173.948,222.797 217,255.5C 209.515,242.615 201.849,229.615 194,216.5C 179.16,190.807 171.327,163.141 170.5,133.5C 172.662,74.9634 199.995,33.1301 252.5,8C 262.748,4.35772 273.081,1.52439 283.5,-0.5 Z"/></g>
</svg>
