<svg width="230" height="312" viewBox="0 0 230 312" fill="none" xmlns="http://www.w3.org/2000/svg">
<path d="M106.216 298.673C94.3917 278.686 55.3974 225 26.6297 189.102C12.1696 171.058 0.338562 155.622 0.338562 154.8C0.338562 153.978 5.66897 146.937 12.1839 139.152C43.7205 101.47 86.2052 43.8045 103.541 15.1505C108.857 6.36456 113.86 -0.063788 114.661 0.865387C115.461 1.79456 123.007 13.1156 131.43 26.0232C149.819 54.2035 189.839 107.905 212.623 134.972L229.135 154.589L212.623 174.206C182.673 209.787 139.996 268.546 117.688 304.916L113.728 311.371L106.216 298.673Z" fill="#FF0000"/>
</svg>
