<?xml version="1.0" encoding="UTF-8"?>
<!DOCTYPE svg PUBLIC "-//W3C//DTD SVG 1.1//EN" "http://www.w3.org/Graphics/SVG/1.1/DTD/svg11.dtd">
<svg xmlns="http://www.w3.org/2000/svg" version="1.1" width="600px" height="600px" style="shape-rendering:geometricPrecision; text-rendering:geometricPrecision; image-rendering:optimizeQuality; fill-rule:evenodd; clip-rule:evenodd" xmlns:xlink="http://www.w3.org/1999/xlink">
<g><path style="opacity:0.998" fill="#d40000" d="M 133.5,-0.5 C 147.167,-0.5 160.833,-0.5 174.5,-0.5C 226.14,6.2911 261.64,33.9578 281,82.5C 288.883,102.648 295.049,123.315 299.5,144.5C 305.21,114.201 315.377,85.5339 330,58.5C 352.012,23.7387 383.512,4.07204 424.5,-0.5C 438.167,-0.5 451.833,-0.5 465.5,-0.5C 543.833,10.5 588.5,55.1667 599.5,133.5C 599.5,148.167 599.5,162.833 599.5,177.5C 594.363,232.1 575.53,281.433 543,325.5C 525.789,347.717 507.456,369.051 488,389.5C 466.833,410 445.667,430.5 424.5,451C 388.002,485.147 354.835,521.981 325,561.5C 316.216,573.781 308.049,586.448 300.5,599.5C 299.833,599.5 299.167,599.5 298.5,599.5C 280.536,569.694 260.036,541.694 237,515.5C 228,505.833 219,496.167 210,486.5C 177,454.167 144,421.833 111,389.5C 91.5442,369.051 73.2108,347.717 56,325.5C 23.4705,281.433 4.63712,232.1 -0.5,177.5C -0.5,162.833 -0.5,148.167 -0.5,133.5C 10.5,55.1667 55.1667,10.5 133.5,-0.5 Z"/></g>
</svg>
